<?xml version="1.0" encoding="UTF-8"?>
<svg xmlns="http://www.w3.org/2000/svg" xmlns:xlink="http://www.w3.org/1999/xlink" width="400pt" height="187.04pt" viewBox="0 0 400 187.04" version="1.1">
<defs>
<clipPath id="clip1">
  <path d="M 227 148 L 267 148 L 267 187.039063 L 227 187.039063 Z M 227 148 "/>
</clipPath>
<clipPath id="clip2">
  <path d="M 351 148 L 391 148 L 391 187.039063 L 351 187.039063 Z M 351 148 "/>
</clipPath>
</defs>
<g id="surface1">
<path style=" stroke:none;fill-rule:nonzero;fill:rgb(100%,59.999084%,0%);fill-opacity:1;" d="M 255.554688 81.484375 L 357.40625 81.484375 L 368.519531 37.042969 L 242.59375 37.042969 Z M 227.777344 14.820313 L 394.445313 14.820313 C 394.445313 14.820313 400 14.820313 400 24.078125 C 400 33.339844 377.777344 98.152344 377.777344 98.152344 C 377.777344 98.152344 375.925781 103.707031 372.222656 103.707031 L 277.777344 103.707031 L 272.222656 116.671875 L 374.074219 116.671875 C 374.074219 116.671875 383.332031 116.671875 383.332031 125.929688 C 383.332031 135.1875 374.074219 144.449219 372.222656 144.449219 L 244.445313 144.449219 C 244.445313 144.449219 237.035156 142.59375 237.035156 135.1875 C 237.035156 127.78125 250 103.707031 250 103.707031 L 238.890625 103.707031 C 238.890625 103.707031 235.1875 103.707031 233.332031 100.003906 C 231.480469 96.300781 216.667969 37.042969 216.667969 37.042969 L 187.035156 24.078125 C 187.035156 24.078125 183.335938 22.226563 183.335938 16.671875 C 183.335938 11.117188 188.890625 3.707031 190.742188 1.855469 C 192.59375 0.00390625 194.445313 0.00390625 196.296875 0.00390625 C 198.148438 0.00390625 227.777344 14.820313 227.777344 14.820313 "/>
<g clip-path="url(#clip1)" clip-rule="nonzero">
<path style=" stroke:none;fill-rule:nonzero;fill:rgb(100%,59.999084%,0%);fill-opacity:1;" d="M 266.667969 167.59375 C 266.667969 178.335938 257.960938 187.039063 247.222656 187.039063 C 236.484375 187.039063 227.777344 178.335938 227.777344 167.59375 C 227.777344 156.855469 236.484375 148.152344 247.222656 148.152344 C 257.960938 148.152344 266.667969 156.855469 266.667969 167.59375 "/>
</g>
<g clip-path="url(#clip2)" clip-rule="nonzero">
<path style=" stroke:none;fill-rule:nonzero;fill:rgb(100%,59.999084%,0%);fill-opacity:1;" d="M 390.738281 167.59375 C 390.738281 178.335938 382.035156 187.039063 371.296875 187.039063 C 360.558594 187.039063 351.851563 178.335938 351.851563 167.59375 C 351.851563 156.855469 360.558594 148.152344 371.296875 148.152344 C 382.035156 148.152344 390.738281 156.855469 390.738281 167.59375 "/>
</g>
<path style=" stroke:none;fill-rule:nonzero;fill:rgb(100%,59.999084%,0%);fill-opacity:1;" d="M 220.371094 118.523438 C 220.371094 125.929688 207.40625 174.078125 157.40625 174.078125 C 122.222656 174.078125 116.664063 155.558594 85.183594 155.558594 C 83.332031 155.558594 81.480469 155.558594 81.480469 153.707031 C 81.480469 151.855469 83.332031 150.003906 98.148438 150.003906 C 112.964844 150.003906 138.890625 155.558594 146.296875 155.558594 C 153.703125 155.558594 172.222656 153.707031 172.222656 142.59375 C 172.222656 131.484375 150 131.484375 148.148438 131.484375 C 142.59375 131.484375 109.257813 138.890625 98.148438 138.890625 C 64.816406 138.890625 61.109375 116.667969 16.664063 116.667969 C 11.109375 116.667969 5.554688 118.523438 1.851563 118.523438 C 0 118.523438 0 116.667969 0 116.667969 C 0 114.816406 12.964844 103.707031 33.332031 103.707031 C 53.703125 103.707031 74.074219 114.816406 94.445313 114.816406 C 105.554688 114.816406 107.40625 107.410156 107.40625 105.558594 C 107.40625 103.707031 107.40625 92.597656 79.628906 92.597656 C 51.851563 92.597656 44.445313 96.300781 44.445313 92.597656 C 44.445313 89.035156 77.777344 77.78125 94.445313 77.78125 C 116.664063 77.78125 127.777344 94.449219 150 94.449219 C 162.964844 94.449219 172.222656 87.042969 172.222656 81.484375 C 172.222656 75.929688 161.109375 68.523438 142.59375 68.523438 C 135.183594 68.523438 131.480469 70.375 118.519531 70.375 C 100 70.375 83.332031 62.96875 83.332031 61.117188 C 83.332031 59.765625 85.242188 59.261719 87.09375 59.261719 C 88.949219 59.261719 92.359375 59.976563 96.867188 59.976563 C 106.125 59.976563 137.035156 48.152344 150 48.152344 C 190.742188 48.152344 220.371094 83.335938 220.371094 118.523438 "/>
</g>
</svg>
